<svg width="25px" height="13px" viewBox="11 12 25 13" version="1.1" xmlns="http://www.w3.org/2000/svg" xmlns:xlink="http://www.w3.org/1999/xlink">
    <!-- Generator: Sketch 39 (31667) - http://www.bohemiancoding.com/sketch -->
    <desc>Created with Sketch.</desc>
    <defs></defs>
    <path d="M22.6195758,18.2544776 C22.6195758,18.2544776 22.5642655,20.4678792 22.5642655,21.5215885 C22.5642655,22.5752978 24.877864,20.3545161 24.877864,20.3545161 L24.877864,22.307778 C21.5036291,24.4232616 20.1859357,24.6335976 17.6416496,24.6704713 C14.0648996,24.4861027 12.1843686,22.5502619 12,18.8628908 C12.1843686,15.1386459 13.9911533,13.1843686 17.4204085,13 C20.038442,13.0368737 21.7530438,14.0508856 22.5642655,16.042066 L20.9049567,16.6504792 C20.3518511,15.2124044 19.1903466,14.4933778 17.4204085,14.4933778 C15.2079858,14.7146201 14.0096081,16.1711099 13.8252396,18.8628908 C13.9727344,21.6284191 15.2448584,23.1033455 17.6416496,23.287714 C19.2272192,23.2508403 20.3518505,22.7899258 21.0155773,21.9049567 L21.0155773,19.6925451 L17.3097879,19.6925451 L17.3097879,18.2544776 L22.6195758,18.2544776 Z M35,24.5103191 L32.7322781,24.5103191 L28.8605578,19.0899106 L26.5928359,21.3576325 L26.5928359,24.5103191 L24.8782169,24.5103191 L24.8782169,13.1717096 L26.5928359,13.1717096 L26.5928359,19.2005312 L31.8945298,13.696868 L34.1832446,13.6622415 L29.9114533,17.9837048 L35,24.5103191 Z" id="GK" stroke="none" fill="#555555" fill-rule="evenodd"></path>
</svg>
